<svg width="90" height="23" viewBox="0 0 90 23" fill="none" xmlns="http://www.w3.org/2000/svg">
<path d="M0.911875 11.4595V10.3723C1.88805 10.3723 2.56903 10.1677 2.95483 9.75849C3.34647 9.34932 3.54228 8.66541 3.54228 7.70677V4.901C3.54228 4.09434 3.61827 3.39582 3.77025 2.80544C3.92808 2.21506 4.18235 1.72698 4.53307 1.34118C4.88379 0.955389 5.35142 0.668967 5.93596 0.481916C6.52049 0.294864 7.24239 0.201338 8.10166 0.201338V1.91987C7.4236 1.91987 6.88875 2.02509 6.49711 2.23552C6.11132 2.44595 5.83659 2.77329 5.67292 3.21754C5.51509 3.65594 5.43618 4.2171 5.43618 4.901V8.40822C5.43618 8.86415 5.3748 9.27917 5.25205 9.65328C5.13514 10.0274 4.91594 10.3489 4.59445 10.6178C4.27295 10.8866 3.81409 11.0942 3.21787 11.2403C2.62749 11.3864 1.85882 11.4595 0.911875 11.4595ZM8.10166 22.6475C7.24239 22.6475 6.52049 22.554 5.93596 22.3669C5.35142 22.1799 4.88379 21.8935 4.53307 21.5077C4.18235 21.1219 3.92808 20.6338 3.77025 20.0434C3.61827 19.453 3.54228 18.7545 3.54228 17.9478V15.1421C3.54228 14.1834 3.34647 13.4995 2.95483 13.0903C2.56903 12.6812 1.88805 12.4766 0.911875 12.4766V11.3893C1.85882 11.3893 2.62749 11.4624 3.21787 11.6085C3.81409 11.7547 4.27295 11.9622 4.59445 12.2311C4.91594 12.5 5.13514 12.8215 5.25205 13.1956C5.3748 13.5697 5.43618 13.9847 5.43618 14.4406V17.9478C5.43618 18.6317 5.51509 19.1929 5.67292 19.6313C5.83659 20.0697 6.11132 20.3941 6.49711 20.6045C6.88875 20.8208 7.4236 20.929 8.10166 20.929V22.6475ZM0.911875 12.4766V10.3723H2.98113V12.4766H0.911875ZM89.0964 11.3893V12.4766C88.1202 12.4766 87.4363 12.6812 87.0446 13.0903C86.6588 13.4995 86.466 14.1834 86.466 15.1421V17.9478C86.466 18.7545 86.387 19.453 86.2292 20.0434C86.0772 20.6338 85.8259 21.1219 85.4752 21.5077C85.1244 21.8935 84.6568 22.1799 84.0723 22.3669C83.4877 22.554 82.7658 22.6475 81.9066 22.6475V20.929C82.5846 20.929 83.1166 20.8208 83.5024 20.6045C83.894 20.3941 84.1687 20.0697 84.3266 19.6313C84.4902 19.1929 84.5721 18.6317 84.5721 17.9478V14.4406C84.5721 13.9847 84.6305 13.5697 84.7474 13.1956C84.8702 12.8215 85.0923 12.5 85.4138 12.2311C85.7353 11.9622 86.1912 11.7547 86.7816 11.6085C87.3778 11.4624 88.1494 11.3893 89.0964 11.3893ZM81.9066 0.201338C82.7658 0.201338 83.4877 0.294864 84.0723 0.481916C84.6568 0.668967 85.1244 0.955389 85.4752 1.34118C85.8259 1.72698 86.0772 2.21506 86.2292 2.80544C86.387 3.39582 86.466 4.09434 86.466 4.901V7.70677C86.466 8.66541 86.6588 9.34932 87.0446 9.75849C87.4363 10.1677 88.1202 10.3723 89.0964 10.3723V11.4595C88.1494 11.4595 87.3778 11.3864 86.7816 11.2403C86.1912 11.0942 85.7353 10.8866 85.4138 10.6178C85.0923 10.3489 84.8702 10.0274 84.7474 9.65328C84.6305 9.27917 84.5721 8.86415 84.5721 8.40822V4.901C84.5721 4.2171 84.4902 3.65594 84.3266 3.21754C84.1687 2.77329 83.894 2.44595 83.5024 2.23552C83.1166 2.02509 82.5846 1.91987 81.9066 1.91987V0.201338ZM89.0964 10.3723V12.4766H87.0271V10.3723H89.0964Z" fill="#00D8FF"/>
<path d="M23.255 19.2806C21.9924 19.2806 20.9052 18.9825 19.9933 18.3862C19.0814 17.79 18.38 16.9687 17.889 15.9224C17.398 14.8761 17.1525 13.6807 17.1525 12.3363C17.1525 10.9685 17.4038 9.76142 17.9065 8.7151C18.4151 7.66293 19.1223 6.84166 20.0284 6.25128C20.9403 5.65505 22.0041 5.35694 23.2199 5.35694C24.1669 5.35694 25.0203 5.5323 25.7802 5.88302C26.5401 6.23374 27.1626 6.72475 27.6478 7.35605C28.133 7.98735 28.434 8.72387 28.5509 9.5656H26.4816C26.3238 8.95183 25.9731 8.40822 25.4295 7.93474C24.8917 7.45542 24.1669 7.21576 23.255 7.21576C22.4484 7.21576 21.7411 7.4262 21.1332 7.84706C20.5311 8.26208 20.0605 8.84954 19.7215 9.60944C19.3883 10.3635 19.2217 11.2491 19.2217 12.2662C19.2217 13.3066 19.3854 14.2127 19.7127 14.9842C20.0459 15.7558 20.5135 16.355 21.1156 16.7817C21.7235 17.2084 22.4367 17.4218 23.255 17.4218C23.7928 17.4218 24.2809 17.3282 24.7193 17.1412C25.1577 16.9541 25.5289 16.6852 25.8328 16.3345C26.1368 15.9838 26.3531 15.5629 26.4816 15.0719H28.5509C28.434 15.8669 28.1447 16.5829 27.6829 17.2201C27.2269 17.8514 26.6219 18.3541 25.8679 18.7282C25.1197 19.0964 24.2487 19.2806 23.255 19.2806ZM37.0471 19.2806C35.8313 19.2806 34.7645 18.9912 33.8468 18.4125C32.9349 17.8339 32.2218 17.0243 31.7074 15.9838C31.1988 14.9433 30.9446 13.7275 30.9446 12.3363C30.9446 10.9334 31.1988 9.70881 31.7074 8.66249C32.2218 7.61617 32.9349 6.80367 33.8468 6.22498C34.7645 5.64629 35.8313 5.35694 37.0471 5.35694C38.263 5.35694 39.3268 5.64629 40.2387 6.22498C41.1564 6.80367 41.8695 7.61617 42.3781 8.66249C42.8925 9.70881 43.1497 10.9334 43.1497 12.3363C43.1497 13.7275 42.8925 14.9433 42.3781 15.9838C41.8695 17.0243 41.1564 17.8339 40.2387 18.4125C39.3268 18.9912 38.263 19.2806 37.0471 19.2806ZM37.0471 17.4218C37.9707 17.4218 38.7306 17.185 39.3268 16.7115C39.923 16.2381 40.3644 15.6155 40.6508 14.844C40.9372 14.0724 41.0804 13.2365 41.0804 12.3363C41.0804 11.4361 40.9372 10.5973 40.6508 9.81987C40.3644 9.04244 39.923 8.41406 39.3268 7.93474C38.7306 7.45542 37.9707 7.21576 37.0471 7.21576C36.1236 7.21576 35.3637 7.45542 34.7674 7.93474C34.1712 8.41406 33.7299 9.04244 33.4435 9.81987C33.157 10.5973 33.0138 11.4361 33.0138 12.3363C33.0138 13.2365 33.157 14.0724 33.4435 14.844C33.7299 15.6155 34.1712 16.2381 34.7674 16.7115C35.3637 17.185 36.1236 17.4218 37.0471 17.4218ZM51.3938 19.2806C50.2715 19.2806 49.2807 18.9971 48.4215 18.4301C47.5622 17.8572 46.89 17.0506 46.4048 16.0101C45.9196 14.9638 45.6771 13.7275 45.6771 12.3012C45.6771 10.8866 45.9196 9.65912 46.4048 8.61865C46.89 7.57818 47.5651 6.77444 48.4302 6.20744C49.2953 5.64044 50.2949 5.35694 51.4289 5.35694C52.3057 5.35694 52.9984 5.50308 53.5069 5.79534C54.0213 6.08177 54.4129 6.40911 54.6818 6.77736C54.9566 7.13977 55.1699 7.43789 55.3219 7.6717H55.4973V1.04307H57.5665V19H55.5674V16.9307H55.3219C55.1699 17.1762 54.9536 17.4861 54.6731 17.8602C54.3925 18.2284 53.9921 18.5587 53.4718 18.8509C52.9516 19.1374 52.2589 19.2806 51.3938 19.2806ZM51.6744 17.4218C52.5044 17.4218 53.2059 17.2055 53.7787 16.7729C54.3516 16.3345 54.787 15.7295 55.0852 14.9579C55.3833 14.1805 55.5323 13.2832 55.5323 12.2662C55.5323 11.2607 55.3862 10.381 55.0939 9.62697C54.8017 8.86708 54.3691 8.2767 53.7963 7.85583C53.2234 7.42912 52.5161 7.21576 51.6744 7.21576C50.7976 7.21576 50.0669 7.44081 49.4824 7.8909C48.9037 8.33515 48.4682 8.94014 48.176 9.70589C47.8895 10.4658 47.7463 11.3192 47.7463 12.2662C47.7463 13.2248 47.8925 14.0957 48.1847 14.879C48.4828 15.6565 48.9212 16.2761 49.4999 16.7378C50.0845 17.1938 50.8093 17.4218 51.6744 17.4218ZM67.2903 19.2806C65.9926 19.2806 64.8732 18.9942 63.9321 18.4213C62.9969 17.8426 62.2749 17.036 61.7664 16.0013C61.2637 14.9609 61.0124 13.7509 61.0124 12.3714C61.0124 10.9919 61.2637 9.77603 61.7664 8.72387C62.2749 7.66586 62.9822 6.84166 63.8883 6.25128C64.8001 5.65505 65.864 5.35694 67.0798 5.35694C67.7813 5.35694 68.4739 5.47385 69.1579 5.70766C69.8418 5.94148 70.4643 6.32143 71.0254 6.84751C71.5866 7.36774 72.0338 8.0575 72.367 8.91676C72.7001 9.77603 72.8667 10.834 72.8667 12.0908V12.9676H62.4854V11.1789H70.7624C70.7624 10.419 70.6104 9.74096 70.3065 9.14473C70.0084 8.54851 69.5816 8.07795 69.0263 7.73308C68.4769 7.3882 67.828 7.21576 67.0798 7.21576C66.2556 7.21576 65.5425 7.42035 64.9404 7.82953C64.3442 8.23286 63.8853 8.75894 63.5639 9.40777C63.2424 10.0566 63.0816 10.7522 63.0816 11.4946V12.687C63.0816 13.7041 63.257 14.5663 63.6077 15.2736C63.9643 15.975 64.4582 16.5099 65.0895 16.8781C65.7208 17.2405 66.4544 17.4218 67.2903 17.4218C67.8339 17.4218 68.3249 17.3458 68.7633 17.1938C69.2075 17.036 69.5904 16.8021 69.9119 16.4923C70.2334 16.1767 70.4818 15.7851 70.6572 15.3174L72.6563 15.8786C72.4459 16.5566 72.0922 17.1529 71.5954 17.6673C71.0985 18.1758 70.4848 18.5733 69.7541 18.8597C69.0234 19.1403 68.2021 19.2806 67.2903 19.2806Z" fill="#F9F9F9"/>
</svg>
