<svg width="67" height="90" viewBox="0 0 67 90" fill="none" xmlns="http://www.w3.org/2000/svg">
<path d="M48.2104 54.9061C49.9306 53.7303 52.3165 52.7127 52.3165 52.7127C52.3165 52.7127 45.5259 53.9413 38.7702 54.5028C30.5056 55.187 21.6267 55.3272 17.1696 54.7307C6.62353 53.327 22.9601 49.4487 22.9601 49.4487C22.9601 49.4487 16.6255 49.028 8.81689 52.7827C-0.395224 57.2399 31.6284 59.2752 48.2104 54.9061Z" fill="#F9F9F9"/>
<path d="M33.225 49.2729C29.891 41.7803 18.6431 35.1998 33.225 23.6889C51.4217 9.33535 42.0863 0 42.0863 0C45.859 14.8275 28.8207 19.3197 22.6613 28.532C18.4674 34.8314 24.7144 41.5873 33.225 49.2729Z" fill="#F9F9F9"/>
<path d="M53.3336 18.3545C53.3511 18.3545 22.5908 26.0402 37.2779 42.9557C41.6121 47.9393 36.1373 52.4314 36.1373 52.4314C36.1373 52.4314 47.1396 46.7463 42.0859 39.6395C37.3656 33.0064 33.7508 29.7076 53.3336 18.3545Z" fill="#F9F9F9"/>
<path d="M52.2631 65.8205C52.1754 66.031 51.9121 66.2593 51.9121 66.2767C74.425 60.3632 66.1428 45.4127 55.3861 49.2033C54.4385 49.5367 53.9477 50.3087 53.9477 50.3087C53.9477 50.3087 54.5439 50.0628 55.8779 49.7822C61.3172 48.6418 69.126 57.0644 52.2631 65.8205Z" fill="#F9F9F9"/>
<path d="M60.546 76.7518C60.546 76.7518 63.0903 78.8401 57.756 80.4719C47.5962 83.5426 15.5023 84.4725 6.58819 80.595C3.37706 79.2084 9.39561 77.2606 11.2909 76.8573C13.256 76.436 14.3966 76.5059 14.3966 76.5059C10.8345 73.9967 -8.64306 81.4369 4.49991 83.5604C40.3315 89.3858 69.8464 80.9455 60.546 76.7518Z" fill="#F9F9F9"/>
<path d="M21.3109 69.4873C7.50109 73.3479 29.7161 81.3145 47.2982 73.7863C44.4208 72.6637 42.3501 71.365 42.3501 71.365C34.5064 72.8566 30.8743 72.9617 23.7499 72.1547C17.8716 71.4879 21.3109 69.4873 21.3109 69.4873Z" fill="#F9F9F9"/>
<path d="M52.8598 86.5436C39.0502 89.1404 22.0119 88.8426 11.9219 87.175C11.9219 87.1578 13.9926 88.8773 24.6262 89.5617C40.8047 90.5973 65.6518 88.9824 66.2309 81.332C66.2311 81.332 65.108 84.2275 52.8598 86.5436Z" fill="#F9F9F9"/>
<path d="M45.2099 61.942C34.8216 63.9426 28.8031 63.8898 21.2052 63.1002C15.3267 62.4859 19.1697 59.6436 19.1697 59.6436C3.93881 64.6971 27.6275 70.4178 48.9121 64.1883C46.6488 63.3984 45.2099 61.942 45.2099 61.942Z" fill="#F9F9F9"/>
</svg>
