<svg width="90" height="90" viewBox="0 0 90 90" fill="none" xmlns="http://www.w3.org/2000/svg">
<rect width="90" height="90" fill="white"/>
<path d="M38.5703 42.0889H48.0939V68.7804C48.0939 80.8105 42.3298 85.0086 33.1191 85.0086C30.8636 85.0086 27.9815 84.6327 26.1016 84.0062L27.1668 76.2995C28.4826 76.7381 30.1743 77.0513 32.0539 77.0513C36.0638 77.0513 38.5703 75.2342 38.5703 68.718V42.0889V42.0889Z" fill="#323232"/>
<path d="M56.3621 74.5445C58.8683 75.8603 62.8784 77.1761 66.9511 77.1761C71.3371 77.1761 73.6553 75.3592 73.6553 72.5396C73.6553 69.9708 71.6503 68.4045 66.5751 66.65C59.5575 64.1437 54.9211 60.259 54.9211 54.0562C54.9211 46.8506 60.9988 41.3994 70.8984 41.3994C75.7231 41.3994 79.1689 42.3395 81.6754 43.5298L79.5449 51.1739C77.9159 50.3595 74.8456 49.1689 70.7733 49.1689C66.6379 49.1689 64.6328 51.1112 64.6328 53.2416C64.6328 55.9359 66.9511 57.1262 72.465 59.2567C79.9209 62.0136 83.367 65.8983 83.367 71.9132C83.367 78.9934 77.9785 85.0085 66.3872 85.0085C61.5625 85.0085 56.8005 83.6925 54.4199 82.3768L56.3621 74.5445Z" fill="#323232"/>
</svg>
