<svg width="116" height="83" viewBox="0 0 116 83" fill="none" xmlns="http://www.w3.org/2000/svg">
<path d="M0 76.7871H3.81271V61.6677L9.79473 74.815C10.4521 76.3927 11.4381 76.9843 13.3445 76.9843C15.2509 76.9843 16.1054 76.3927 16.8285 74.815L22.7448 61.6677V76.7871H26.5575V61.6677C26.5575 60.2215 25.9659 59.4984 24.7169 59.104C21.8245 58.2494 19.8524 58.9725 18.9978 60.9446L13.213 73.9604L7.55969 60.9446C6.70512 58.9725 4.73303 58.2494 1.84062 59.104C0.591628 59.4984 0 60.1558 0 61.6677V76.7871Z" fill="white"/>
<path d="M29.7148 64.4944H33.5276V72.7772C33.5276 73.2374 33.659 74.2892 35.7626 74.3549C36.8801 74.3549 44.0454 74.3549 44.1111 74.3549V64.4287H47.9238C47.9238 64.4287 47.9238 77.9704 47.9238 78.0362C47.9238 81.3887 43.7824 82.1118 41.8761 82.1118H29.8463V79.5481H41.9418C44.3741 79.2852 44.1111 78.0362 44.1111 77.6417V76.6557H35.9598C32.1471 76.6557 29.7148 74.9465 29.7148 73.0402C29.7148 72.843 29.8463 64.5602 29.7148 64.4944Z" fill="white"/>
<path d="M50.8809 76.7863H61.9246C63.2393 76.7863 64.4226 76.5234 65.4744 76.0632C67.1178 75.2744 67.9066 74.2883 67.9066 72.9079V70.0812C67.9066 68.9637 66.9863 67.9776 65.2114 67.2545C64.2911 66.9259 63.1078 66.7286 61.9246 66.7286H57.323C55.7454 66.7286 55.0223 66.2685 54.825 65.2167C54.825 65.0852 54.825 64.9538 54.825 64.888V63.1789C54.825 63.1131 54.825 62.9817 54.825 62.8502C55.0223 62.0613 55.4167 61.8641 56.7971 61.7327C56.9286 61.7327 57.0601 61.7327 57.1258 61.7327H68.0381V59.1689H57.323C55.7454 59.1689 54.9565 59.2347 54.2334 59.4976C51.9984 60.2207 50.9466 61.3383 50.9466 63.3103V65.4139C50.9466 67.1231 52.853 68.635 56.1398 68.9637C56.4685 68.9637 56.8629 68.9637 57.2573 68.9637H61.2015C61.333 68.9637 61.4644 68.9637 61.5959 68.9637C62.7792 69.0952 63.3051 69.2924 63.6995 69.7525C63.9624 70.0155 63.9624 70.2127 63.9624 70.4756V72.7107C63.9624 72.9736 63.7652 73.3023 63.4365 73.631C63.1078 73.9597 62.5162 74.1569 61.7931 74.1569C61.6616 74.1569 61.5302 74.1569 61.3987 74.1569H50.8809V76.7863Z" fill="white"/>
<path d="M91.7695 72.3175C91.7695 74.947 93.7416 76.3932 97.6858 76.6561C98.0802 76.6561 98.4089 76.7219 98.8033 76.7219H108.795V74.1581H98.7376C96.5026 74.1581 95.648 73.6322 95.648 72.2518V59.1045H91.8353L91.7695 72.3175Z" fill="white"/>
<path d="M70.3379 72.4477V63.3761C70.3379 61.0753 71.9813 59.6291 75.2024 59.2347C75.5311 59.2347 75.9255 59.1689 76.2542 59.1689H83.5509C83.9453 59.1689 84.274 59.1689 84.6684 59.2347C87.8895 59.6948 89.4672 61.0753 89.4672 63.3761V72.4477C89.4672 74.3541 88.8098 75.3401 87.2322 75.9975L90.9791 79.4158H86.5748L83.5509 76.6548L80.4613 76.8521H76.3856C75.7283 76.8521 74.9394 76.7863 74.1506 76.5891C71.5211 75.866 70.3379 74.5513 70.3379 72.4477ZM74.4793 72.2505C74.4793 72.382 74.545 72.5134 74.545 72.6449C74.7422 73.6967 75.7283 74.2883 77.2402 74.2883H80.7243L77.5689 71.3959H81.9732L84.7342 73.8939C85.2601 73.631 85.5888 73.1708 85.7202 72.6449C85.7202 72.5134 85.7202 72.382 85.7202 72.2505V63.5733C85.7202 63.4418 85.7202 63.3103 85.7202 63.2446C85.523 62.2586 84.537 61.6669 83.025 61.6669H77.2402C75.5311 61.6669 74.4136 62.39 74.4136 63.5733L74.4793 72.2505Z" fill="white"/>
<path d="M110.502 76.7867H111.028V74.6174H111.751V74.1572H109.713V74.6174H110.502V76.7867ZM114.775 76.7867H115.3V74.223H114.512L113.854 75.9978L113.131 74.223H112.342V76.7867H112.868V74.8146L113.591 76.7867H113.986L114.709 74.8146L114.775 76.7867Z" fill="white"/>
<path d="M108.68 49.686C105.08 49.586 102.38 49.986 99.9797 50.886C99.2797 51.186 98.2797 51.186 98.1797 51.986C98.5797 52.386 98.5797 52.886 98.8797 53.386C99.3797 54.286 100.38 55.486 101.18 56.086C102.08 56.786 103.08 57.486 104.08 58.186C105.78 59.286 107.78 59.886 109.48 60.986C110.48 61.586 111.48 62.386 112.38 63.086C112.88 63.486 113.18 63.986 113.78 64.286V64.186C113.48 63.786 113.38 63.186 113.08 62.786C112.68 62.386 112.18 61.986 111.78 61.486C110.48 59.786 108.88 58.186 107.18 56.986C105.78 55.986 102.58 54.686 102.08 52.986C102.08 52.986 102.08 52.986 101.98 52.886C102.98 52.786 104.08 52.486 105.08 52.186C106.58 51.786 107.98 51.886 109.58 51.486C110.28 51.286 110.98 51.086 111.68 50.886C111.68 50.786 111.68 50.586 111.68 50.486C110.88 49.686 110.28 48.586 109.48 47.886C107.18 45.886 104.68 43.986 102.08 42.386C100.68 41.486 98.8797 40.886 97.4797 40.186C96.9797 39.886 96.0797 39.786 95.7797 39.386C94.9797 38.386 94.4797 37.086 93.9797 35.986C92.6797 33.486 91.4797 30.786 90.2797 28.186C89.4797 26.486 88.9797 24.686 87.9797 23.086C83.3797 15.486 78.3797 10.886 70.6797 6.38597C68.9797 5.48597 67.0797 5.08597 64.9797 4.58597C63.8797 4.58597 62.7797 4.48597 61.6797 4.38597C60.9797 4.08597 60.2797 3.18597 59.5797 2.78597C57.0797 1.18597 50.4797 -2.31403 48.5797 2.28597C47.3797 5.18597 50.3797 8.08597 51.3797 9.48597C52.1797 10.486 53.0797 11.686 53.6797 12.786C53.9797 13.586 54.0797 14.386 54.3797 15.186C55.0797 17.186 55.7797 19.286 56.6797 21.186C57.1797 22.086 57.6797 23.086 58.3797 23.986C58.7797 24.486 59.3797 24.686 59.4797 25.486C58.8797 26.386 58.7797 27.686 58.4797 28.786C56.8797 33.786 57.4797 40.086 59.7797 43.786C60.4797 44.886 62.1797 47.386 64.4797 46.386C66.4797 45.586 66.0797 43.086 66.5797 40.786C66.6797 40.286 66.5797 39.886 66.8797 39.586V39.686C67.4797 40.886 68.0797 42.186 68.6797 43.386C70.0797 45.586 72.4797 47.886 74.4797 49.386C75.5797 50.186 76.3797 51.586 77.7797 52.086V51.986C77.7797 51.986 77.7797 51.986 77.6797 51.986C77.3797 51.586 76.9797 51.386 76.6797 51.086C75.8797 50.286 74.9797 49.286 74.3797 48.386C72.4797 45.886 70.8797 43.086 69.3797 40.286C68.6797 38.886 68.0797 37.386 67.4797 35.986C67.1797 35.486 67.1797 34.686 66.7797 34.386C66.0797 35.386 65.0797 36.186 64.6797 37.386C63.8797 39.286 63.7797 41.686 63.4797 44.086C63.2797 44.086 63.3797 44.086 63.2797 44.186C61.8797 43.786 61.3797 42.386 60.7797 41.086C59.4797 37.886 59.1797 32.786 60.3797 29.186C60.6797 28.286 62.0797 25.286 61.4797 24.386C61.1797 23.586 60.2797 23.086 59.7797 22.386C59.1797 21.586 58.5797 20.486 58.1797 19.486C57.0797 16.986 56.5797 14.186 55.3797 11.686C54.8797 10.486 53.8797 9.28597 53.1797 8.28597C52.3797 7.08597 51.3797 6.18597 50.6797 4.78597C50.4797 4.28597 50.1797 3.48597 50.4797 2.98597C50.5797 2.58597 50.7797 2.48597 51.0797 2.38597C51.6797 1.88597 53.2797 2.48597 53.8797 2.78597C55.5797 3.48597 56.8797 4.08597 58.2797 4.98597C58.8797 5.38597 59.5797 6.28597 60.3797 6.48597C60.6797 6.48597 60.9797 6.48597 61.2797 6.48597C62.6797 6.78597 64.2797 6.58597 65.6797 6.98597C68.0797 7.78597 70.1797 8.88597 72.0797 10.086C77.8797 13.786 82.7797 19.086 85.9797 25.386C86.4797 26.386 86.7797 27.386 87.1797 28.386C88.0797 30.586 89.2797 32.786 90.1797 34.986C91.0797 37.086 91.9797 39.186 93.3797 40.986C94.0797 41.886 96.6797 42.386 97.9797 42.886C98.8797 43.286 100.28 43.686 101.08 44.086C102.58 44.986 104.08 46.086 105.58 47.086C106.28 47.686 108.58 48.786 108.68 49.686Z" fill="white"/>
<path d="M63.1789 10.9863C62.3789 10.9863 61.8789 11.0863 61.3789 11.1863C61.3789 11.1863 61.3789 11.1863 61.3789 11.2863C61.3789 11.2863 61.3789 11.2863 61.4789 11.2863C61.8789 11.9863 62.4789 12.4863 62.8789 13.0863C63.2789 13.7863 63.5789 14.4863 63.8789 15.1863L63.9789 15.0863C64.5789 14.6863 64.8789 13.8863 64.8789 12.8863C64.5789 12.5863 64.5789 12.2863 64.3789 11.9863C64.0789 11.4863 63.4789 11.2863 63.1789 10.9863Z" fill="white"/>
</svg>
