<svg width="94" height="84" viewBox="0 0 94 84" fill="none" xmlns="http://www.w3.org/2000/svg">
<path d="M27.8495 83.2646C26.1495 83.2646 24.6495 82.8979 23.3828 82.1646C18.5995 79.3979 16.9328 71.4313 18.9495 60.8479C20.5995 52.1646 24.6328 41.9646 30.3162 32.1146C35.8995 22.4479 42.5995 13.9479 49.2162 8.19793C53.0828 4.83126 56.9995 2.36459 60.5328 1.06459C64.3828 -0.352074 67.7162 -0.352074 70.1495 1.04793C75.1328 3.91459 76.7828 12.7146 74.4495 23.9813C72.7995 31.9813 68.8662 41.6313 63.3662 51.1813C57.4995 61.3479 51.1662 69.5479 45.0495 74.8979C41.0828 78.3646 36.9995 80.8979 33.2662 82.2146C31.3162 82.9146 29.4828 83.2646 27.8495 83.2646ZM32.0328 33.1146L33.7662 34.1146C28.3828 43.4479 24.3995 53.4646 22.8662 61.5979C21.0162 71.3479 22.7995 77.2146 25.3662 78.6979C25.9995 79.0646 26.8328 79.2646 27.8495 79.2646C31.1662 79.2646 36.3828 77.1646 42.4162 71.8979C48.1995 66.8479 54.2495 58.9813 59.8995 49.1979C65.1995 40.0146 68.9662 30.7813 70.5328 23.1979C72.7162 12.5813 70.8328 6.08126 68.1495 4.53126C66.7828 3.74793 64.5662 3.84793 61.8995 4.83126C58.8162 5.96459 55.3328 8.18126 51.8328 11.2313C45.5495 16.6979 39.1328 24.8313 33.7662 34.1313L32.0328 33.1146Z" fill="#F9F9F9"/>
<path d="M46.8335 49.9306C51.4542 49.9306 55.2001 46.1847 55.2001 41.5639C55.2001 36.9432 51.4542 33.1973 46.8335 33.1973C42.2127 33.1973 38.4668 36.9432 38.4668 41.5639C38.4668 46.1847 42.2127 49.9306 46.8335 49.9306Z" fill="#F9F9F9"/>
<path d="M46.8333 60.7311C35.0833 60.7311 24.8167 59.3478 17.1333 56.7145C12.15 55.0145 7.91667 52.7478 4.9 50.1645C1.7 47.4311 0 44.4478 0 41.5645C0 36.0311 6.06667 30.6145 16.25 27.0811C24.5833 24.1811 35.45 22.5645 46.8167 22.5645C57.9833 22.5645 68.7 24.1311 76.9833 26.9978C81.8333 28.6645 85.9167 30.8311 88.8167 33.2311C91.9667 35.8645 93.6333 38.7478 93.6333 41.5645C93.6333 47.3145 86.85 53.1311 75.9167 56.7478C68.1833 59.3145 57.85 60.7311 46.8333 60.7311ZM46.8333 26.5645C36.05 26.5645 25.3833 28.1311 17.5833 30.8478C8.21667 34.1145 4.01667 38.5811 4.01667 41.5645C4.01667 44.6645 8.53333 49.5478 18.4333 52.9311C25.7 55.4145 35.5333 56.7311 46.8333 56.7311C57.4333 56.7311 67.3167 55.3978 74.6667 52.9478C84.95 49.5311 89.65 44.6478 89.65 41.5645C89.65 39.9811 88.45 38.1145 86.2667 36.2978C83.75 34.1978 80.0833 32.2811 75.7 30.7645C67.8167 28.0645 57.5667 26.5645 46.8333 26.5645Z" fill="#F9F9F9"/>
<path d="M65.8169 83.3141C61.2835 83.3141 55.5335 80.5807 49.5335 75.4141C42.8335 69.6474 36.0169 61.0641 30.3169 51.2141C24.7169 41.5474 20.7169 31.4974 19.0335 22.8807C18.0502 17.8474 17.8669 13.2307 18.5002 9.51407C19.2002 5.46407 20.8502 2.58073 23.3002 1.16406C28.2669 -1.71927 36.7169 1.2474 45.3169 8.8974C51.4169 14.3141 57.8169 22.5474 63.3335 32.0807C69.2169 42.2474 73.1669 51.8307 74.7335 59.7974C75.7502 64.9641 75.9169 69.7641 75.2002 73.6641C74.4335 77.8141 72.7002 80.7641 70.2002 82.2141C68.9502 82.9474 67.4669 83.3141 65.8169 83.3141ZM33.7835 49.2141C39.1835 58.5474 45.8835 66.9974 52.1502 72.3807C59.6669 78.8474 65.6335 80.2474 68.2169 78.7474C70.9002 77.1974 72.8669 70.8474 70.8335 60.5807C69.3335 53.0474 65.5502 43.8807 59.8835 34.0974C54.5669 24.9141 48.4502 17.0307 42.6669 11.8974C34.5669 4.6974 28.0002 3.08073 25.3169 4.63073C23.9502 5.41406 22.9335 7.3974 22.4502 10.1974C21.9002 13.4307 22.0669 17.5641 22.9669 22.1141C24.5669 30.2974 28.4002 39.9141 33.7835 49.2141Z" fill="#F9F9F9"/>
</svg>
